<?xml version="1.0" encoding="UTF-8" standalone="no"?>
<svg
   width="47"
   height="46"
   viewBox="0 0 47 46"
   fill="none"
   version="1.1"
   id="svg1"
   sodipodi:docname="starblue.svg"
   inkscape:version="1.3 (0e150ed6c4, 2023-07-21)"
   xmlns:inkscape="http://www.inkscape.org/namespaces/inkscape"
   xmlns:sodipodi="http://sodipodi.sourceforge.net/DTD/sodipodi-0.dtd"
   xmlns:xlink="http://www.w3.org/1999/xlink"
   xmlns="http://www.w3.org/2000/svg"
   xmlns:svg="http://www.w3.org/2000/svg">
  <defs
     id="defs1">
    <linearGradient
       id="swatch1"
       inkscape:swatch="solid">
      <stop
         style="stop-color:#00ffff;stop-opacity:1;"
         offset="0"
         id="stop1" />
    </linearGradient>
    <linearGradient
       inkscape:collect="always"
       xlink:href="#swatch1"
       id="linearGradient1"
       x1="0.069544674"
       y1="22.980554"
       x2="46.55518"
       y2="22.980554"
       gradientUnits="userSpaceOnUse" />
  </defs>
  <sodipodi:namedview
     id="namedview1"
     pagecolor="#ffffff"
     bordercolor="#000000"
     borderopacity="0.25"
     inkscape:showpageshadow="2"
     inkscape:pageopacity="0.0"
     inkscape:pagecheckerboard="0"
     inkscape:deskcolor="#d1d1d1"
     inkscape:zoom="6.3101594"
     inkscape:cx="24.801275"
     inkscape:cy="32.804243"
     inkscape:window-width="1448"
     inkscape:window-height="1040"
     inkscape:window-x="859"
     inkscape:window-y="0"
     inkscape:window-maximized="0"
     inkscape:current-layer="svg1" />
  <path
     d="M22.2044 1.55551C22.6143 0.569963 24.0104 0.569964 24.4203 1.55552L29.9874 14.9402C30.1602 15.3557 30.5509 15.6396 30.9994 15.6756L45.4494 16.834C46.5134 16.9193 46.9448 18.2471 46.1341 18.9415L35.1248 28.3722C34.7831 28.6649 34.6338 29.1242 34.7382 29.5619L38.1018 43.6626C38.3494 44.7009 37.2199 45.5215 36.309 44.9651L23.9379 37.4089C23.5538 37.1743 23.0709 37.1743 22.6868 37.4089L10.3157 44.9651C9.40478 45.5215 8.27528 44.7009 8.52295 43.6626L11.8865 29.5619C11.9909 29.1242 11.8416 28.6649 11.4999 28.3722L0.490575 18.9415C-0.320069 18.2471 0.111362 16.9193 1.17535 16.834L15.6253 15.6756C16.0738 15.6396 16.4645 15.3557 16.6374 14.9402L22.2044 1.55551Z"
     fill="#00FFFF"
     id="path1"
     style="fill:#0b113b;fill-opacity:1;stroke:url(#linearGradient1)" />
</svg>
